# 3ds Max Wavefront OBJ Exporter v0.97b - (c)2007 guruware
# File Created: 18.01.2016 16:11:53

mtllib bodenplatte uw.mtl

#
# object Boden_platte_2_x2_
#

v  -1.0000 0.0000 1.0000
v  -0.5000 0.0000 1.0000
v  0.0000 0.0000 1.0000
v  0.5000 0.0000 1.0000
v  1.0000 0.0000 1.0000
v  -1.0000 0.0000 0.5000
v  1.0000 0.0000 0.5000
v  -1.0000 0.0000 -0.0000
v  1.0000 0.0000 -0.0000
v  -1.0000 0.0000 -0.5000
v  1.0000 0.0000 -0.5000
v  -1.0000 0.0000 -1.0000
v  -0.5000 0.0000 -1.0000
v  0.0000 0.0000 -1.0000
v  0.5000 0.0000 -1.0000
v  1.0000 0.0000 -1.0000
# 16 vertices

vn 0.0000 1.0000 -0.0000
vn 0.0000 1.0000 -0.0000
vn 0.0000 1.0000 -0.0000
vn 0.0000 1.0000 -0.0000
vn 0.0000 1.0000 -0.0000
vn 0.0000 1.0000 -0.0000
vn 0.0000 1.0000 -0.0000
vn 0.0000 1.0000 -0.0000
vn 0.0000 1.0000 -0.0000
vn 0.0000 1.0000 -0.0000
vn 0.0000 1.0000 -0.0000
vn 0.0000 1.0000 -0.0000
vn 0.0000 1.0000 -0.0000
vn 0.0000 1.0000 -0.0000
vn 0.0000 1.0000 -0.0000
vn 0.0000 1.0000 -0.0000
vn 0.0000 1.0000 -0.0000
vn 0.0000 1.0000 -0.0000
vn 0.0000 1.0000 -0.0000
vn 0.0000 1.0000 -0.0000
vn 0.0000 1.0000 -0.0000
vn 0.0000 1.0000 -0.0000
vn 0.0000 1.0000 -0.0000
vn 0.0000 1.0000 -0.0000
vn 0.0000 1.0000 -0.0000
vn 0.0000 1.0000 -0.0000
vn 0.0000 1.0000 -0.0000
vn 0.0000 1.0000 -0.0000
vn 0.0000 1.0000 -0.0000
vn 0.0000 1.0000 -0.0000
# 30 vertex normals

vt 0.0020 0.0020 0.0000
vt 0.2510 0.0020 0.0000
vt 0.5000 0.0020 0.0000
vt 0.7490 0.0020 0.0000
vt 0.9980 0.0020 0.0000
vt 0.0020 0.2510 0.0000
vt 0.9980 0.2510 0.0000
vt 0.0020 0.5000 0.0000
vt 0.9980 0.5000 0.0000
vt 0.0020 0.7490 0.0000
vt 0.9980 0.7490 0.0000
vt 0.0020 0.9980 0.0000
vt 0.2510 0.9980 0.0000
vt 0.5000 0.9980 0.0000
vt 0.7490 0.9980 0.0000
vt 0.9980 0.9980 0.0000
# 16 texture coords

g Boden_platte_2_x2_
usemtl wire_008061138
s 1
f 4/4/1 5/5/2 7/7/3 15/15/4 
f 11/11/5 16/16/6 15/15/7 9/9/8 
f 7/7/9 9/9/10 15/15/11 
f 3/3/12 4/4/13 15/15/14 14/14/15 
f 2/2/16 3/3/17 14/14/18 13/13/19 
f 1/1/20 2/2/21 13/13/22 6/6/23 
f 13/13/24 12/12/25 10/10/26 8/8/27 
f 6/6/28 13/13/29 8/8/30 
# 6 polygons - 2 triangles

