# 3ds Max Wavefront OBJ Exporter v0.97b - (c)2007 guruware
# File Created: 18.01.2016 16:10:36

mtllib Wand uw.mtl

#
# object Wand_2_x_4
#

v  -0.0000 0.0000 1.0000
v  0.0000 0.0000 1.0000
v  0.0001 0.0000 1.0000
v  -0.0000 0.0000 -1.0000
v  0.0000 0.0000 -1.0000
v  0.0001 0.0000 -1.0000
v  -0.0000 4.0000 1.0000
v  0.0000 4.0000 1.0000
v  0.0001 4.0000 1.0000
v  -0.0000 4.0000 -1.0000
v  0.0000 4.0000 -1.0000
v  0.0001 4.0000 -1.0000
# 12 vertices

vn 0.0000 -1.0000 -0.0000
vn 0.0000 -1.0000 -0.0000
vn 0.0000 -1.0000 -0.0000
vn 0.0000 -1.0000 -0.0000
vn 0.0000 -1.0000 -0.0000
vn 0.0000 -1.0000 -0.0000
vn 0.0000 -1.0000 -0.0000
vn 0.0000 -1.0000 -0.0000
vn 0.0000 1.0000 -0.0000
vn 0.0000 1.0000 -0.0000
vn 0.0000 1.0000 -0.0000
vn 0.0000 1.0000 -0.0000
vn 0.0000 1.0000 -0.0000
vn 0.0000 1.0000 -0.0000
vn 0.0000 1.0000 -0.0000
vn 0.0000 1.0000 -0.0000
vn 0.0000 0.0000 1.0000
vn 0.0000 0.0000 1.0000
vn 0.0000 0.0000 1.0000
vn 0.0000 0.0000 1.0000
vn 0.0000 0.0000 1.0000
vn 0.0000 0.0000 1.0000
vn 0.0000 0.0000 1.0000
vn 0.0000 0.0000 1.0000
vn 1.0000 0.0000 -0.0000
vn 1.0000 0.0000 -0.0000
vn 1.0000 0.0000 -0.0000
vn 1.0000 0.0000 -0.0000
vn 0.0000 0.0000 -1.0000
vn 0.0000 0.0000 -1.0000
vn 0.0000 0.0000 -1.0000
vn 0.0000 0.0000 -1.0000
vn 0.0000 0.0000 -1.0000
vn 0.0000 0.0000 -1.0000
vn 0.0000 0.0000 -1.0000
vn 0.0000 0.0000 -1.0000
# 36 vertex normals

vt 0.9960 0.0283 0.0000
vt 0.9936 0.0283 0.0000
vt 0.9911 0.0283 0.0000
vt 0.9960 0.0331 0.0000
vt 0.9936 0.0331 0.0000
vt 0.9911 0.0331 0.0000
vt 0.0283 0.9911 0.0000
vt 0.0307 0.9911 0.0000
vt 0.0331 0.9911 0.0000
vt 0.0283 0.9960 0.0000
vt 0.0307 0.9960 0.0000
vt 0.0331 0.9960 0.0000
vt 0.0020 0.9911 0.0000
vt 0.0054 0.9911 0.0000
vt 0.0089 0.9911 0.0000
vt 0.0020 0.9980 0.0000
vt 0.0054 0.9980 0.0000
vt 0.0089 0.9980 0.0000
vt 0.0020 0.0020 0.0000
vt 0.9717 0.0020 0.0000
vt 0.0020 0.9717 0.0000
vt 0.9717 0.9717 0.0000
vt 0.9911 0.0020 0.0000
vt 0.9946 0.0020 0.0000
vt 0.9980 0.0020 0.0000
vt 0.9911 0.0089 0.0000
vt 0.9946 0.0089 0.0000
vt 0.9980 0.0089 0.0000
# 28 texture coords

g Wand_2_x_4
usemtl wire_088144225
s 2
f 1/1/1 4/4/2 5/5/3 2/2/4 
f 2/2/5 5/5/6 6/6/7 3/3/8 
s 4
f 7/7/9 8/8/10 11/11/11 10/10/12 
f 8/8/13 9/9/14 12/12/15 11/11/16 
s 8
f 1/13/17 2/14/18 8/17/19 7/16/20 
f 2/14/21 3/15/22 9/18/23 8/17/24 
s 16
f 3/19/25 6/20/26 12/22/27 9/21/28 
s 32
f 6/23/29 5/24/30 11/27/31 12/26/32 
f 5/24/33 4/25/34 10/28/35 11/27/36 
# 9 polygons

