# 3ds Max Wavefront OBJ Exporter v0.97b - (c)2007 guruware
# File Created: 15.02.2016 14:55:11

mtllib Treppe 5 m breit ohne textur.mtl

#
# object Box001
#

v  0.0014 0.0099 -0.3019
v  5.0000 0.0099 -0.3019
v  5.0000 0.0099 -0.0009
v  0.0014 0.0099 -0.0009
v  5.0000 0.2821 -0.0009
v  5.0000 0.2821 -0.3019
v  0.0014 0.2821 -0.3019
v  0.0014 0.2821 -0.0009
v  0.0014 0.0099 -0.6028
v  5.0000 0.0099 -0.6028
v  5.0000 0.4730 -0.2837
v  5.0000 0.4730 -0.5846
v  0.0014 0.4730 -0.5846
v  0.0014 0.4730 -0.2837
v  0.0014 0.0099 -0.9037
v  5.0000 0.0099 -0.9037
v  5.0000 0.6638 -0.5846
v  5.0000 0.6638 -0.8855
v  0.0014 0.6638 -0.8855
v  0.0014 0.6638 -0.5846
v  0.0014 0.0099 -1.2046
v  5.0000 0.0099 -1.2046
v  5.0000 0.8547 -0.8855
v  5.0000 0.8547 -1.1865
v  0.0014 0.8547 -1.1865
v  0.0014 0.8547 -0.8855
v  -0.0007 0.0099 -1.5056
v  5.0000 0.0099 -1.5056
v  5.0000 1.0455 -1.1865
v  5.0000 1.0455 -1.4874
v  -0.0007 1.0455 -1.4874
v  -0.0007 1.0455 -1.1865
v  -0.0007 0.0099 -1.8065
v  5.0000 0.0099 -1.8065
v  5.0000 1.2363 -1.4874
v  5.0000 1.2363 -1.7883
v  -0.0007 1.2363 -1.7883
v  -0.0007 1.2363 -1.4874
v  -0.0007 0.0099 -2.1074
v  5.0000 0.0099 -2.1074
v  5.0000 1.4272 -1.7883
v  5.0000 1.4272 -2.0893
v  -0.0007 1.4272 -2.0893
v  -0.0007 1.4272 -1.7883
v  -0.0007 0.0099 -2.4084
v  5.0000 0.0099 -2.4084
v  5.0000 1.6180 -2.0893
v  5.0000 1.6180 -2.3902
v  -0.0007 1.6180 -2.3902
v  -0.0007 1.6180 -2.0893
v  -0.0007 0.0099 -2.7093
v  5.0000 0.0099 -2.7093
v  5.0000 1.8089 -2.3902
v  5.0000 1.8089 -2.6911
v  -0.0007 1.8089 -2.6911
v  -0.0007 1.8089 -2.3902
v  -0.0007 0.0099 -3.0102
v  5.0000 0.0099 -3.0102
v  5.0000 1.9997 -2.6911
v  5.0000 1.9997 -2.9920
v  -0.0007 1.9997 -2.9920
v  -0.0007 1.9997 -2.6911
# 62 vertices

vn 0.0000 -1.0000 -0.0000
vn 0.0000 1.0000 -0.0000
vn 0.0000 0.0000 1.0000
vn 1.0000 0.0000 -0.0000
vn 0.0000 0.0000 -1.0000
vn -1.0000 0.0000 -0.0000
# 6 vertex normals

vt 0.4866 0.7419 0.0000
vt 0.2518 0.7419 0.0000
vt 0.2518 0.7184 0.0000
vt 0.4866 0.7184 0.0000
vt 0.7364 0.7184 0.0000
vt 0.7364 0.7419 0.0000
vt 0.5015 0.7419 0.0000
vt 0.5015 0.7184 0.0000
vt 0.9861 0.4217 0.0000
vt 0.9861 0.4374 0.0000
vt 0.7513 0.4374 0.0000
vt 0.7513 0.4217 0.0000
vt 0.2752 0.4694 0.0000
vt 0.2752 0.4851 0.0000
vt 0.2518 0.4851 0.0000
vt 0.2518 0.4694 0.0000
vt 0.4866 0.3136 0.0000
vt 0.4866 0.3293 0.0000
vt 0.2518 0.3293 0.0000
vt 0.2518 0.3136 0.0000
vt 0.5250 0.1422 0.0000
vt 0.5250 0.1578 0.0000
vt 0.5015 0.1578 0.0000
vt 0.5015 0.1422 0.0000
vt 0.9861 0.5242 0.0000
vt 0.7513 0.5242 0.0000
vt 0.7513 0.5008 0.0000
vt 0.9861 0.5008 0.0000
vt 0.7364 0.5008 0.0000
vt 0.7364 0.5242 0.0000
vt 0.5015 0.5242 0.0000
vt 0.5015 0.5008 0.0000
vt 0.2369 0.7184 0.0000
vt 0.2369 0.7498 0.0000
vt 0.0020 0.7498 0.0000
vt 0.0020 0.7184 0.0000
vt 0.7747 0.7184 0.0000
vt 0.7747 0.7498 0.0000
vt 0.7513 0.7498 0.0000
vt 0.7513 0.7184 0.0000
vt 0.4866 0.6253 0.0000
vt 0.4866 0.6566 0.0000
vt 0.2518 0.6566 0.0000
vt 0.2518 0.6253 0.0000
vt 0.7747 0.6636 0.0000
vt 0.7747 0.6950 0.0000
vt 0.7513 0.6950 0.0000
vt 0.7513 0.6636 0.0000
vt 0.7364 0.4460 0.0000
vt 0.5015 0.4460 0.0000
vt 0.5015 0.4225 0.0000
vt 0.7364 0.4225 0.0000
vt 0.9861 0.2894 0.0000
vt 0.9861 0.3129 0.0000
vt 0.7513 0.3129 0.0000
vt 0.7513 0.2894 0.0000
vt 0.9861 0.1108 0.0000
vt 0.9861 0.1578 0.0000
vt 0.7513 0.1578 0.0000
vt 0.7513 0.1108 0.0000
vt 0.5245 0.8414 0.0000
vt 0.5245 0.8884 0.0000
vt 0.5010 0.8884 0.0000
vt 0.5010 0.8414 0.0000
vt 0.7364 0.2823 0.0000
vt 0.7364 0.3293 0.0000
vt 0.5015 0.3293 0.0000
vt 0.5015 0.2823 0.0000
vt 0.5245 0.9033 0.0000
vt 0.5245 0.9503 0.0000
vt 0.5010 0.9503 0.0000
vt 0.5010 0.9033 0.0000
vt 0.4866 0.7881 0.0000
vt 0.2518 0.7881 0.0000
vt 0.2518 0.7647 0.0000
vt 0.4866 0.7647 0.0000
vt 0.9861 0.2510 0.0000
vt 0.9861 0.2745 0.0000
vt 0.7513 0.2745 0.0000
vt 0.7513 0.2510 0.0000
vt 0.7364 0.3449 0.0000
vt 0.7364 0.4076 0.0000
vt 0.5015 0.4076 0.0000
vt 0.5015 0.3449 0.0000
vt 0.4861 0.8414 0.0000
vt 0.4861 0.9041 0.0000
vt 0.4627 0.9041 0.0000
vt 0.4627 0.8414 0.0000
vt 0.9861 0.1735 0.0000
vt 0.9861 0.2361 0.0000
vt 0.7513 0.2361 0.0000
vt 0.7513 0.1735 0.0000
vt 0.4861 0.9190 0.0000
vt 0.4861 0.9816 0.0000
vt 0.4627 0.9816 0.0000
vt 0.4627 0.9190 0.0000
vt 0.7364 0.6871 0.0000
vt 0.5015 0.6871 0.0000
vt 0.5015 0.6636 0.0000
vt 0.7364 0.6636 0.0000
vt 0.9861 0.3449 0.0000
vt 0.9861 0.3684 0.0000
vt 0.7513 0.3684 0.0000
vt 0.7513 0.3449 0.0000
vt 0.4866 0.5008 0.0000
vt 0.4866 0.5790 0.0000
vt 0.2518 0.5790 0.0000
vt 0.2518 0.5008 0.0000
vt 0.4478 0.8414 0.0000
vt 0.4478 0.9197 0.0000
vt 0.4243 0.9197 0.0000
vt 0.4243 0.8414 0.0000
vt 0.2369 0.6253 0.0000
vt 0.2369 0.7035 0.0000
vt 0.0020 0.7035 0.0000
vt 0.0020 0.6253 0.0000
vt 0.4094 0.8414 0.0000
vt 0.4094 0.9197 0.0000
vt 0.3859 0.9197 0.0000
vt 0.3859 0.8414 0.0000
vt 0.2369 0.7881 0.0000
vt 0.0020 0.7881 0.0000
vt 0.0020 0.7647 0.0000
vt 0.2369 0.7647 0.0000
vt 0.7364 0.6253 0.0000
vt 0.7364 0.6487 0.0000
vt 0.5015 0.6487 0.0000
vt 0.5015 0.6253 0.0000
vt 0.9861 0.0020 0.0000
vt 0.9861 0.0959 0.0000
vt 0.7513 0.0959 0.0000
vt 0.7513 0.0020 0.0000
vt 0.3326 0.8414 0.0000
vt 0.3326 0.9354 0.0000
vt 0.3091 0.9354 0.0000
vt 0.3091 0.8414 0.0000
vt 0.7364 0.1735 0.0000
vt 0.7364 0.2674 0.0000
vt 0.5015 0.2674 0.0000
vt 0.5015 0.1735 0.0000
vt 0.3710 0.8414 0.0000
vt 0.3710 0.9354 0.0000
vt 0.3475 0.9354 0.0000
vt 0.3475 0.8414 0.0000
vt 0.4866 0.6950 0.0000
vt 0.2518 0.6950 0.0000
vt 0.2518 0.6715 0.0000
vt 0.4866 0.6715 0.0000
vt 0.7364 0.5775 0.0000
vt 0.7364 0.6010 0.0000
vt 0.5015 0.6010 0.0000
vt 0.5015 0.5775 0.0000
vt 0.4866 0.3449 0.0000
vt 0.4866 0.4545 0.0000
vt 0.2518 0.4545 0.0000
vt 0.2518 0.3449 0.0000
vt 0.2942 0.8414 0.0000
vt 0.2942 0.9510 0.0000
vt 0.2707 0.9510 0.0000
vt 0.2707 0.8414 0.0000
vt 0.2369 0.5008 0.0000
vt 0.2369 0.6104 0.0000
vt 0.0020 0.6104 0.0000
vt 0.0020 0.5008 0.0000
vt 0.2558 0.8414 0.0000
vt 0.2558 0.9510 0.0000
vt 0.2323 0.9510 0.0000
vt 0.2323 0.8414 0.0000
vt 0.9861 0.5626 0.0000
vt 0.7513 0.5626 0.0000
vt 0.7513 0.5391 0.0000
vt 0.9861 0.5391 0.0000
vt 0.2369 0.8030 0.0000
vt 0.2369 0.8265 0.0000
vt 0.0020 0.8265 0.0000
vt 0.0020 0.8030 0.0000
vt 0.7364 0.0020 0.0000
vt 0.7364 0.1273 0.0000
vt 0.5015 0.1273 0.0000
vt 0.5015 0.0020 0.0000
vt 0.2174 0.8414 0.0000
vt 0.2174 0.9667 0.0000
vt 0.1939 0.9667 0.0000
vt 0.1939 0.8414 0.0000
vt 0.4866 0.1735 0.0000
vt 0.4866 0.2987 0.0000
vt 0.2518 0.2987 0.0000
vt 0.2518 0.1735 0.0000
vt 0.1790 0.8414 0.0000
vt 0.1790 0.9667 0.0000
vt 0.1556 0.9667 0.0000
vt 0.1556 0.8414 0.0000
vt 0.7364 0.5626 0.0000
vt 0.5015 0.5626 0.0000
vt 0.5015 0.5391 0.0000
vt 0.7364 0.5391 0.0000
vt 0.9861 0.6253 0.0000
vt 0.9861 0.6487 0.0000
vt 0.7513 0.6487 0.0000
vt 0.7513 0.6253 0.0000
vt 0.2369 0.3449 0.0000
vt 0.2369 0.4859 0.0000
vt 0.0020 0.4859 0.0000
vt 0.0020 0.3449 0.0000
vt 0.1407 0.8414 0.0000
vt 0.1407 0.9823 0.0000
vt 0.1172 0.9823 0.0000
vt 0.1172 0.8414 0.0000
vt 0.4866 0.0020 0.0000
vt 0.4866 0.1429 0.0000
vt 0.2518 0.1429 0.0000
vt 0.2518 0.0020 0.0000
vt 0.1023 0.8414 0.0000
vt 0.1023 0.9823 0.0000
vt 0.0788 0.9823 0.0000
vt 0.0788 0.8414 0.0000
vt 0.7364 0.4843 0.0000
vt 0.5015 0.4843 0.0000
vt 0.5015 0.4609 0.0000
vt 0.7364 0.4609 0.0000
vt 0.9861 0.3833 0.0000
vt 0.9861 0.4068 0.0000
vt 0.7513 0.4068 0.0000
vt 0.7513 0.3833 0.0000
vt 0.2369 0.0020 0.0000
vt 0.2369 0.1586 0.0000
vt 0.0020 0.1586 0.0000
vt 0.0020 0.0020 0.0000
vt 0.0255 0.8414 0.0000
vt 0.0255 0.9980 0.0000
vt 0.0020 0.9980 0.0000
vt 0.0020 0.8414 0.0000
vt 0.2369 0.1735 0.0000
vt 0.2369 0.3300 0.0000
vt 0.0020 0.3300 0.0000
vt 0.0020 0.1735 0.0000
vt 0.0639 0.8414 0.0000
vt 0.0639 0.9980 0.0000
vt 0.0404 0.9980 0.0000
vt 0.0404 0.8414 0.0000
# 240 texture coords

g Box001
usemtl Material__25
s 2
f 1/1/1 2/2/1 3/3/1 4/4/1 
s 4
f 5/5/2 6/6/2 7/7/2 8/8/2 
s 8
f 3/9/3 5/10/3 8/11/3 4/12/3 
s 16
f 2/13/4 6/14/4 5/15/4 3/16/4 
s 32
f 1/17/5 7/18/5 6/19/5 2/20/5 
s 64
f 4/21/6 8/22/6 7/23/6 1/24/6 
s 2
f 9/25/1 10/26/1 2/27/1 1/28/1 
s 4
f 11/29/2 12/30/2 13/31/2 14/32/2 
s 8
f 2/33/3 11/34/3 14/35/3 1/36/3 
s 16
f 10/37/4 12/38/4 11/39/4 2/40/4 
s 32
f 9/41/5 13/42/5 12/43/5 10/44/5 
s 64
f 1/45/6 14/46/6 13/47/6 9/48/6 
s 2
f 15/49/1 16/50/1 10/51/1 9/52/1 
s 4
f 17/53/2 18/54/2 19/55/2 20/56/2 
s 8
f 10/57/3 17/58/3 20/59/3 9/60/3 
s 16
f 16/61/4 18/62/4 17/63/4 10/64/4 
s 32
f 15/65/5 19/66/5 18/67/5 16/68/5 
s 64
f 9/69/6 20/70/6 19/71/6 15/72/6 
s 2
f 21/73/1 22/74/1 16/75/1 15/76/1 
s 4
f 23/77/2 24/78/2 25/79/2 26/80/2 
s 8
f 16/81/3 23/82/3 26/83/3 15/84/3 
s 16
f 22/85/4 24/86/4 23/87/4 16/88/4 
s 32
f 21/89/5 25/90/5 24/91/5 22/92/5 
s 64
f 15/93/6 26/94/6 25/95/6 21/96/6 
s 2
f 27/97/1 28/98/1 22/99/1 21/100/1 
s 4
f 29/101/2 30/102/2 31/103/2 32/104/2 
s 8
f 22/105/3 29/106/3 32/107/3 21/108/3 
s 16
f 28/109/4 30/110/4 29/111/4 22/112/4 
s 32
f 27/113/5 31/114/5 30/115/5 28/116/5 
s 64
f 21/117/6 32/118/6 31/119/6 27/120/6 
s 2
f 33/121/1 34/122/1 28/123/1 27/124/1 
s 4
f 35/125/2 36/126/2 37/127/2 38/128/2 
s 8
f 28/129/3 35/130/3 38/131/3 27/132/3 
s 16
f 34/133/4 36/134/4 35/135/4 28/136/4 
s 32
f 33/137/5 37/138/5 36/139/5 34/140/5 
s 64
f 27/141/6 38/142/6 37/143/6 33/144/6 
s 2
f 39/145/1 40/146/1 34/147/1 33/148/1 
s 4
f 41/149/2 42/150/2 43/151/2 44/152/2 
s 8
f 34/153/3 41/154/3 44/155/3 33/156/3 
s 16
f 40/157/4 42/158/4 41/159/4 34/160/4 
s 32
f 39/161/5 43/162/5 42/163/5 40/164/5 
s 64
f 33/165/6 44/166/6 43/167/6 39/168/6 
s 2
f 45/169/1 46/170/1 40/171/1 39/172/1 
s 4
f 47/173/2 48/174/2 49/175/2 50/176/2 
s 8
f 40/177/3 47/178/3 50/179/3 39/180/3 
s 16
f 46/181/4 48/182/4 47/183/4 40/184/4 
s 32
f 45/185/5 49/186/5 48/187/5 46/188/5 
s 64
f 39/189/6 50/190/6 49/191/6 45/192/6 
s 2
f 51/193/1 52/194/1 46/195/1 45/196/1 
s 4
f 53/197/2 54/198/2 55/199/2 56/200/2 
s 8
f 46/201/3 53/202/3 56/203/3 45/204/3 
s 16
f 52/205/4 54/206/4 53/207/4 46/208/4 
s 32
f 51/209/5 55/210/5 54/211/5 52/212/5 
s 64
f 45/213/6 56/214/6 55/215/6 51/216/6 
s 2
f 57/217/1 58/218/1 52/219/1 51/220/1 
s 4
f 59/221/2 60/222/2 61/223/2 62/224/2 
s 8
f 52/225/3 59/226/3 62/227/3 51/228/3 
s 16
f 58/229/4 60/230/4 59/231/4 52/232/4 
s 32
f 57/233/5 61/234/5 60/235/5 58/236/5 
s 64
f 51/237/6 62/238/6 61/239/6 57/240/6 
# 60 polygons

